<?xml version="1.0" encoding="UTF-8"?>
<svg width="13px" height="17px" viewBox="0 0 13 17" version="1.1" xmlns="http://www.w3.org/2000/svg" xmlns:xlink="http://www.w3.org/1999/xlink">
    <title>Group 3</title>
    <defs>
        <polygon id="path-1" points="0 0 12.4666978 0 12.4666978 17 0 17"></polygon>
    </defs>
    <g id="Page-1" stroke="none" stroke-width="1" fill="none" fill-rule="evenodd">
        <g id="35-Dante_RechercheAv_L_V5" transform="translate(-523.000000, -257.000000)">
            <g id="ENREGISTRER" transform="translate(503.000000, 248.000000)">
                <g id="Group-3" transform="translate(20.000000, 9.000000)">
                    <mask id="mask-2" fill="white">
                        <use xlink:href="#path-1"></use>
                    </mask>
                    <g id="Clip-2"></g>
                    <path d="M11.3333616,15.0675343 L6.63568323,10.3641892 C6.41524934,10.1420553 6.05654845,10.1403553 5.83441456,10.3607892 C5.83328123,10.3619225 5.83214789,10.3630559 5.83101455,10.3641892 L1.13333616,15.0675343 L1.13333616,1.69983424 C1.13333616,1.38703346 1.38720346,1.13316616 1.70000424,1.13316616 L10.7666935,1.13316616 C11.0794943,1.13316616 11.3333616,1.38703346 11.3333616,1.69983424 L11.3333616,15.0675343 Z M10.7666935,-0.000170000424 L1.70000424,-0.000170000424 C0.761035233,-0.000170000424 0,0.760865232 0,1.69983424 L0,16.4332043 C0.00113333616,16.6621383 0.139967016,16.8678388 0.35133421,16.954539 C0.562134736,17.0435059 0.805802011,16.9964724 0.969002418,16.8355387 L6.23334889,11.5655255 L11.4976954,16.8355387 C11.6047956,16.9415056 11.749296,17.0010058 11.9000297,17 C11.9742632,17.0015724 12.0479301,16.9862724 12.1153636,16.954539 C12.3267308,16.8678388 12.4655644,16.6621383 12.4666978,16.4332043 L12.4666978,1.69983424 C12.4666978,0.760865232 11.7056625,-0.000170000424 10.7666935,-0.000170000424 L10.7666935,-0.000170000424 Z" id="Fill-1" fill="#BA0000" mask="url(#mask-2)"></path>
                </g>
            </g>
        </g>
    </g>
</svg>