<?xml version="1.0" encoding="UTF-8"?>
<svg width="20px" height="17px" viewBox="0 0 20 17" version="1.1" xmlns="http://www.w3.org/2000/svg" xmlns:xlink="http://www.w3.org/1999/xlink">
    <title>Group 5</title>
    <g id="Page-1" stroke="none" stroke-width="1" fill="none" fill-rule="evenodd">
        <g id="35-Dante_RechercheAv_L_V5" transform="translate(-279.000000, -257.000000)" fill="#BA0000">
            <g id="EFFACER-LA-RECHERCH" transform="translate(261.000000, 248.000000)">
                <g id="Group-5" transform="translate(18.000000, 9.000000)">
                    <path d="M19.0580094,3.46852845 L17.4627201,7.02944202 L13.9018066,5.43415274 L14.3576035,4.38012233 L16.0098674,5.12079235 C14.3291162,1.84475187 10.3978676,0.277949899 6.89392866,1.6168534 C4.07368512,2.69937112 2.19352276,5.43415274 2.19352276,8.45380744 L1.05403042,8.45380744 C1.05403042,4.9783558 3.24755317,1.81626456 6.46661903,0.562822984 C10.6257661,-1.03246629 15.2691974,0.876183378 17.1493597,4.86440657 L17.9754917,2.98424421 L19.0580094,3.46852845 Z" id="Fill-1"></path>
                    <path d="M17.9470044,8.45380744 C17.9754917,11.9577464 15.8104562,15.1768123 12.5344157,16.4302538 C11.53736,16.8005888 10.5118168,17 9.51476105,17 C8.3467814,17 7.17880175,16.7436142 6.09628402,16.25933 C4.21612166,15.433198 2.73478162,13.9803453 1.88016236,12.1286702 L1.05403042,14.0088326 L0,13.5530357 L1.59528928,9.9921221 L5.15620284,11.5874114 L4.6719186,12.6414418 L2.99116739,11.9007718 C3.76032472,13.3821118 4.98527899,14.5500915 6.52359365,15.2622742 C8.31829409,16.0599188 10.2839184,16.1168934 12.1071061,15.4047107 C14.955837,14.322193 16.8359993,11.5304368 16.807512,8.48229475 L17.9470044,8.45380744 Z" id="Fill-3"></path>
                </g>
            </g>
        </g>
    </g>
</svg>